<?xml version="1.0" standalone="no"?>
<!DOCTYPE svg PUBLIC "-//W3C//DTD SVG 20010904//EN"
 "http://www.w3.org/TR/2001/REC-SVG-20010904/DTD/svg10.dtd">
<svg version="1.0" xmlns="http://www.w3.org/2000/svg"
 width="263.000000pt" height="263.000000pt" viewBox="0 0 263.000000 263.000000"
 preserveAspectRatio="xMidYMid meet">
<metadata>
Created by potrace 1.14, written by Peter Selinger 2001-2017
</metadata>
<g transform="translate(0.000000,263.000000) scale(0.100000,-0.100000)"
fill="#000000" stroke="none">
<path d="M210 2622 c0 -5 -6 -9 -14 -9 -7 0 -29 -10 -49 -22 -27 -16 -34 -27
-31 -44 5 -22 4 -22 -6 1 l-10 23 -23 -23 c-31 -30 -86 -104 -69 -94 6 4 12 3
12 -3 0 -5 -6 -12 -12 -14 -10 -4 -9 -8 2 -16 10 -7 11 -11 3 -11 -10 0 -13
-239 -13 -1119 0 -1223 -3 -1159 57 -1216 32 -30 68 -51 109 -62 16 -4 538 -9
1161 -10 l1132 -3 33 30 c18 16 38 30 44 30 12 0 48 52 71 104 10 22 13 255
13 1147 l0 1119 -30 53 c-20 35 -46 63 -80 85 -99 65 -38 62 -1222 62 -593 0
-1078 -4 -1078 -8z m-22 -32 c-7 -10 -14 -17 -17 -15 -4 4 18 35 25 35 2 0 -1
-9 -8 -20z m32 -14 c0 -2 -7 -6 -15 -10 -8 -3 -15 -1 -15 4 0 6 7 10 15 10 8
0 15 -2 15 -4z m-52 -36 c-7 -10 -14 -17 -17 -15 -4 4 18 35 25 35 2 0 -1 -9
-8 -20z m58 3 c-3 -19 -36 -32 -36 -14 0 6 7 8 15 5 11 -5 13 -2 9 10 -3 9 -2
16 4 16 6 0 9 -8 8 -17z m-60 -45 c-9 -12 -16 -19 -16 -15 0 11 24 47 28 42 2
-2 -3 -14 -12 -27z m-56 12 c0 -5 -4 -10 -10 -10 -5 0 -10 5 -10 10 0 6 5 10
10 10 6 0 10 -4 10 -10z m30 0 c0 -5 -2 -10 -4 -10 -3 0 -8 5 -11 10 -3 6 -1
10 4 10 6 0 11 -4 11 -10z m-90 -20 c0 -5 -5 -10 -11 -10 -5 0 -7 5 -4 10 3 6
8 10 11 10 2 0 4 -4 4 -10z m160 -7 c0 -3 -7 -2 -16 1 -12 4 -15 2 -10 -9 3
-8 1 -15 -4 -15 -11 0 -14 23 -4 33 6 6 34 -2 34 -10z m-123 -8 c0 -8 -4 -12
-8 -9 -4 2 -10 -2 -12 -8 -4 -8 -6 -7 -6 4 -1 9 5 19 12 21 6 3 12 6 13 6 0 1
1 -6 1 -14z m53 0 c0 -12 -19 -12 -23 0 -4 9 -1 12 9 8 7 -3 14 -7 14 -8z
m-90 -25 c0 -5 -5 -10 -11 -10 -5 0 -7 5 -4 10 3 6 8 10 11 10 2 0 4 -4 4 -10z
m50 -10 c-6 -11 -13 -20 -16 -20 -2 0 0 9 6 20 6 11 13 20 16 20 2 0 0 -9 -6
-20z m50 15 c0 -2 -10 -9 -22 -15 -22 -11 -22 -10 -4 4 21 17 26 19 26 11z
m14 -20 c-10 -8 -23 -15 -28 -15 -6 0 -1 7 10 15 10 8 23 15 28 15 6 0 1 -7
-10 -15z m-114 -25 c0 -5 -2 -10 -4 -10 -3 0 -8 5 -11 10 -3 6 -1 10 4 10 6 0
11 -4 11 -10z m53 -10 c-3 -11 -9 -20 -15 -20 -5 0 -4 9 2 20 6 11 12 20 14
20 2 0 2 -9 -1 -20z m-36 -12 c-3 -8 -6 -5 -6 6 -1 11 2 17 5 13 3 -3 4 -12 1
-19z m-27 -3 c19 -22 8 -25 -12 -3 -10 10 -14 18 -9 18 5 0 14 -7 21 -15z"/>
</g>
</svg>
